<svg id="Layer_1" data-name="Layer 1" xmlns="http://www.w3.org/2000/svg" viewBox="0 0 1044 512.45"><circle cx="965.78" cy="154.82" r="7.4"/><circle cx="924.32" cy="482.4" r="6.05"/><circle cx="276.85" cy="138.42" r="7.03"/><circle cx="339.58" cy="142.04" r="8.03"/><circle cx="474.04" cy="309.26" r="11.03"/><circle cx="699.8" cy="135.76" r="9.79"/><circle cx="665.45" cy="493.57" r="11.32"/><circle cx="219.58" cy="411.94" r="9.86"/><circle cx="1035.79" cy="9.44" r="8.22"/><circle cx="663.27" cy="391.46" r="8.35"/><circle cx="928.19" cy="391.48" r="8.77"/><circle cx="526.92" cy="401.97" r="7.18"/><circle cx="370.33" cy="225.46" r="8.66"/><circle cx="989.37" cy="53.29" r="13.73"/><circle cx="864.56" cy="491.35" r="8.24"/><circle cx="126.43" cy="235.28" r="6.62"/><circle cx="37.65" cy="165.89" r="5.98"/><circle cx="128.18" cy="310.76" r="7.89"/><circle cx="782.66" cy="302.4" r="6.87"/><circle cx="342.66" cy="440.56" r="11.08"/><circle cx="209.73" cy="428.77" r="5.64"/><circle cx="267.27" cy="485.29" r="7.26"/><circle cx="459.52" cy="254.46" r="7.19"/><circle cx="684.36" cy="147.54" r="5.64"/><circle cx="764.38" cy="316.85" r="9.09"/><circle cx="515.59" cy="345.7" r="18.18"/><circle cx="311.99" cy="276.57" r="14.9"/><circle cx="911.12" cy="470.22" r="6.58"/><circle cx="414.12" cy="254.92" r="6.11"/><circle cx="441.89" cy="241.07" r="7.31"/><circle cx="821.56" cy="385.49" r="6.92"/><circle cx="675.96" cy="458.4" r="7.88"/><circle cx="115.09" cy="281.69" r="9.43"/><circle cx="210.81" cy="366.34" r="6.02"/><circle cx="166.7" cy="320.64" r="9.91"/><circle cx="881.31" cy="461.53" r="5.79"/><circle cx="948.94" cy="245.39" r="6.02"/><circle cx="627.99" cy="146.2" r="7.91"/><circle cx="585.42" cy="415.83" r="10.39"/><circle cx="622.15" cy="480.84" r="6.89"/><circle cx="97.15" cy="168.67" r="11.12"/><circle cx="725.98" cy="160.14" r="7.77"/><circle cx="91.99" cy="211" r="10.8"/><circle cx="741.93" cy="287.93" r="6.8"/><circle cx="53.69" cy="136.89" r="6.24"/><circle cx="332.6" cy="462.89" r="7.13"/><circle cx="308.11" cy="303.47" r="8.28"/><circle cx="560.32" cy="435.08" r="15.42"/><circle cx="967" cy="125.57" r="17.88"/><circle cx="428.45" cy="230.3" r="5.92"/><circle cx="497.17" cy="367.87" r="6.65"/><circle cx="678.9" cy="382.54" r="5.64"/><circle cx="667.8" cy="264" r="11.37"/><circle cx="168.5" cy="358.07" r="6.06"/><circle cx="782.88" cy="319.79" r="5.64"/><circle cx="357.01" cy="119.51" r="8.53"/><circle cx="936.88" cy="187.77" r="8.64"/><circle cx="77.77" cy="192.43" r="8.46"/><circle cx="762.91" cy="269.37" r="8.1"/><circle cx="336.42" cy="278.96" r="5.64"/><circle cx="777.17" cy="244.31" r="7.79"/><circle cx="936.27" cy="454.51" r="8.86"/><circle cx="919.9" cy="304.81" r="8.85"/><circle cx="305.72" cy="234.43" r="6.04"/><circle cx="718.95" cy="217.33" r="11.12"/><circle cx="399.27" cy="199.88" r="6.76"/><circle cx="642.92" cy="179.95" r="6.14"/><circle cx="943.06" cy="211.85" r="7.61"/><circle cx="244.13" cy="423.5" r="11.36"/><circle cx="932.47" cy="358.55" r="6.36"/><circle cx="430.81" cy="298.34" r="9.68"/><circle cx="749.11" cy="227.47" r="7.77"/><circle cx="108.84" cy="259.28" r="9.83"/><circle cx="518.47" cy="417.63" r="6.61"/><circle cx="297.09" cy="181.33" r="10.88"/><circle cx="639.78" cy="503.62" r="8.84"/><circle cx="748.84" cy="258.58" r="5.64"/><circle cx="540.06" cy="385.4" r="7.31"/><circle cx="629.42" cy="108.72" r="6.54"/><circle cx="689.23" cy="191.69" r="8.86"/><circle cx="342.41" cy="188.06" r="7.22"/><circle cx="796.46" cy="327.68" r="6.07"/><circle cx="691.08" cy="108.28" r="6.7"/><circle cx="658.06" cy="434.89" r="5.91"/><circle cx="415.21" cy="207.15" r="6.76"/><circle cx="483.72" cy="349.01" r="9.14"/><circle cx="24.17" cy="129.85" r="13.07"/><circle cx="334.56" cy="173.14" r="5.64"/><circle cx="796.72" cy="356.66" r="6.95"/><circle cx="661.89" cy="202.88" r="6.4"/><circle cx="849.18" cy="468.28" r="10.31"/><circle cx="843.78" cy="372.27" r="7.96"/><circle cx="264.43" cy="467.34" r="6.91"/><circle cx="851.09" cy="413.82" r="7.26"/><circle cx="941.52" cy="345.04" r="5.9"/><circle cx="340.12" cy="366.92" r="8.47"/><circle cx="380.44" cy="170.45" r="12.9"/><circle cx="373.25" cy="198.58" r="9.91"/><circle cx="675.9" cy="416.97" r="6.11"/><circle cx="330.11" cy="299.13" r="10.03"/><circle cx="99.99" cy="241.84" r="5.74"/><circle cx="362.66" cy="156.61" r="5.64"/><circle cx="452.95" cy="297.03" r="8.49"/><circle cx="795.35" cy="272.91" r="6.24"/><circle cx="849.43" cy="431.72" r="6.12"/><circle cx="913.44" cy="493.71" r="5.64"/><circle cx="633.41" cy="212.81" r="5.67"/><circle cx="945.07" cy="315.21" r="14.14"/><circle cx="611.02" cy="468.62" r="5.64"/><circle cx="320.18" cy="332.08" r="10.4"/><circle cx="537.7" cy="424.29" r="5.64"/><circle cx="295.78" cy="489.52" r="5.88"/><circle cx="139.93" cy="274.83" r="7"/><circle cx="246.76" cy="455.13" r="9.04"/><circle cx="176.75" cy="337.41" r="5.64"/><circle cx="643.06" cy="263.13" r="6.1"/><circle cx="324.95" cy="132.14" r="5.64"/><circle cx="340.77" cy="477.54" r="5.64"/><circle cx="727.71" cy="279.69" r="5.64"/><circle cx="625.87" cy="461.65" r="6.76"/><circle cx="204.14" cy="398.66" r="6.51"/><circle cx="302.66" cy="214.39" r="10.23"/><circle cx="645.96" cy="107.54" r="6.05"/><circle cx="653.8" cy="323.34" r="7.81"/><circle cx="143.54" cy="228.46" r="5.67"/><circle cx="137.57" cy="247.12" r="5.64"/><circle cx="403.5" cy="240.2" r="6.33"/><circle cx="231.22" cy="444.75" r="5.64"/><circle cx="939.76" cy="258.07" r="5.64"/><circle cx="77.18" cy="133.5" r="6.93"/><circle cx="720.37" cy="255.76" r="9.24"/><circle cx="185.89" cy="395.22" r="8.02"/><circle cx="343.46" cy="410.74" r="14.7"/><circle cx="956.85" cy="169.33" r="5.64"/><circle cx="444.66" cy="327.96" r="6.88"/><circle cx="52.43" cy="121.06" r="5.64"/><circle cx="888.56" cy="478.81" r="8.87"/><circle cx="75.39" cy="228.41" r="5.64"/><circle cx="322.74" cy="234.75" r="5.64"/><circle cx="681.09" cy="335.84" r="10.46"/><circle cx="913.8" cy="433" r="5.73"/><circle cx="281.2" cy="494.85" r="5.64"/><circle cx="496.26" cy="315.08" r="7.94"/><circle cx="181.93" cy="366.18" r="5.64"/><circle cx="672.71" cy="440.07" r="5.64"/><circle cx="687.89" cy="471.22" r="5.64"/><circle cx="339.76" cy="385.02" r="5.64"/><circle cx="272.89" cy="449.46" r="8.15"/><circle cx="26.59" cy="152.43" r="5.64"/><circle cx="592.09" cy="440.39" r="11.05"/><circle cx="44.69" cy="91.65" r="7.56"/><circle cx="647.23" cy="294.45" r="5.9"/><circle cx="59.23" cy="197.22" r="6.69"/><circle cx="330.38" cy="252.23" r="6.45"/><circle cx="117.41" cy="214.22" r="8.83"/><circle cx="293.16" cy="470.87" r="7.57"/><circle cx="681.75" cy="123.82" r="7.42"/><circle cx="313.91" cy="109.88" r="11.62"/><circle cx="157.35" cy="345.09" r="7.05"/><circle cx="943.16" cy="145.64" r="6.35"/><circle cx="814.15" cy="420.87" r="8.57"/><circle cx="11.57" cy="90.45" r="7.17"/><circle cx="843.73" cy="389.87" r="5.64"/><circle cx="716.26" cy="180.51" r="10.8"/><circle cx="551.05" cy="406.43" r="6.22"/><circle cx="289.29" cy="114.49" r="7.46"/><circle cx="662.19" cy="289.86" r="5.75"/><circle cx="617.39" cy="119.53" r="5.64"/><circle cx="798.74" cy="298.65" r="5.64"/><circle cx="15.35" cy="108.41" r="6.12"/><circle cx="960.08" cy="85.76" r="5.93"/><circle cx="422.88" cy="280.72" r="5.64"/><circle cx="322.95" cy="377.46" r="7.68"/><circle cx="29.64" cy="80.72" r="7.04"/><circle cx="196.72" cy="341.25" r="10.7"/><circle cx="941.63" cy="479.44" r="7.51"/><circle cx="645.52" cy="247.58" r="5.64"/><circle cx="835.88" cy="405.44" r="6.11"/><circle cx="956.17" cy="278.8" r="6.63"/><circle cx="869.09" cy="449.8" r="7.15"/><circle cx="156.1" cy="299.31" r="9.91"/><circle cx="567.79" cy="462.97" r="6.63"/><circle cx="310.23" cy="468.71" r="5.64"/><circle cx="226.15" cy="369.45" r="5.64"/><circle cx="675.43" cy="366" r="7.26"/><circle cx="885.33" cy="497.9" r="6.49"/><circle cx="5.64" cy="74.73" r="5.64"/><circle cx="959.91" cy="215.5" r="5.64"/><circle cx="916.58" cy="356.71" r="5.64"/><circle cx="944.37" cy="377.3" r="7.54"/><circle cx="896.73" cy="462.2" r="5.64"/><circle cx="691.24" cy="420.54" r="5.64"/><circle cx="946.37" cy="394.36" r="5.64"/><circle cx="466.11" cy="342.5" r="5.64"/><circle cx="654.65" cy="475.61" r="5.64"/><circle cx="139.93" cy="324.72" r="6.35"/><circle cx="628.99" cy="163.71" r="5.64"/><circle cx="758.98" cy="295.58" r="7.89"/><circle cx="983.4" cy="75.88" r="5.64"/><circle cx="954.92" cy="336.85" r="5.64"/><circle cx="652.59" cy="455.95" r="5.65"/><circle cx="671.21" cy="164.24" r="6.23"/><circle cx="645.21" cy="139.24" r="6.23"/><circle cx="663.21" cy="140.24" r="6.23"/><circle cx="658.49" cy="182.52" r="5.64"/><circle cx="566.76" cy="408.54" r="5.64"/><circle cx="924.01" cy="276.16" r="9.87"/><circle cx="687.41" cy="400.34" r="10.1"/><circle cx="180.59" cy="296.82" r="10.71"/><circle cx="343.75" cy="326.04" r="6.32"/><circle cx="659.05" cy="95.32" r="7.85"/><circle cx="808.9" cy="371.74" r="7.77"/><circle cx="827.63" cy="353.62" r="5.85"/><circle cx="928.64" cy="429.02" r="5.64"/><circle cx="480.63" cy="369.58" r="5.98"/><circle cx="592.77" cy="475.04" r="6.89"/><circle cx="746" cy="197.76" r="5.8"/><circle cx="655.47" cy="348.31" r="6.98"/><circle cx="1013.71" cy="46.9" r="5.66"/><circle cx="315.85" cy="352.9" r="6.87"/><circle cx="920.86" cy="339.86" r="7.74"/><circle cx="539.14" cy="368.48" r="5.64"/><circle cx="456.38" cy="270.99" r="5.64"/><circle cx="674.87" cy="106.23" r="5.64"/><circle cx="480.97" cy="328.73" r="5.64"/><circle cx="317.24" cy="163.91" r="9.99"/><circle cx="319.3" cy="192.91" r="9.71"/><circle cx="321.99" cy="441.92" r="5.64"/><circle cx="681.84" cy="314.82" r="6.41"/><circle cx="352.21" cy="467.33" r="5.69"/><circle cx="118.2" cy="195.78" r="5.64"/><circle cx="703.34" cy="203.64" r="5.64"/><circle cx="773.93" cy="285.95" r="5.9"/><circle cx="863.71" cy="425.05" r="5.64"/><circle cx="292.21" cy="161.4" r="5.64"/><circle cx="71.71" cy="213.58" r="5.64"/><circle cx="53.24" cy="166.82" r="5.64"/><circle cx="409.94" cy="270.11" r="5.64"/><circle cx="319.56" cy="406.17" r="5.64"/><circle cx="132.32" cy="289.87" r="5.64"/><circle cx="403.75" cy="184.11" r="5.64"/><circle cx="643.87" cy="201.12" r="6.02"/><circle cx="154.46" cy="260.39" r="9.48"/><circle cx="1013.58" cy="6.12" r="6.12"/><circle cx="972.98" cy="94.48" r="5.64"/><circle cx="606.03" cy="486.55" r="6.21"/><circle cx="808.67" cy="395.89" r="5.64"/><circle cx="827.18" cy="328" r="6.05"/><circle cx="260.34" cy="436.85" r="5.64"/><circle cx="307.89" cy="134.75" r="7.63"/><circle cx="757.07" cy="242.95" r="5.64"/><circle cx="913.81" cy="454.23" r="5.64"/><circle cx="512.01" cy="394.18" r="5.64"/><circle cx="442.6" cy="258" r="5.64"/><circle cx="583.95" cy="461.06" r="5.64"/><circle cx="337.8" cy="341.61" r="5.64"/><circle cx="812.35" cy="351.12" r="5.64"/><circle cx="359.83" cy="184.36" r="5.64"/><circle cx="928.47" cy="228.08" r="7.67"/><circle cx="496.04" cy="389.94" r="6.88"/><circle cx="362.88" cy="138.51" r="7.35"/><circle cx="1003.77" cy="34.09" r="6.26"/><circle cx="730.71" cy="199.83" r="5.64"/><circle cx="654.31" cy="165.58" r="6.72"/><circle cx="84.57" cy="151.98" r="5.78"/><circle cx="430.58" cy="214.88" r="5.65"/><circle cx="388.71" cy="247.92" r="6.36"/><circle cx="944.37" cy="437.88" r="5.64"/></svg>